<?xml version="1.0" standalone="no"?>
<!DOCTYPE svg PUBLIC "-//W3C//DTD SVG 20010904//EN"
 "http://www.w3.org/TR/2001/REC-SVG-20010904/DTD/svg10.dtd">
<svg version="1.0" xmlns="http://www.w3.org/2000/svg"
 width="700.000000pt" height="700.000000pt" viewBox="0 0 700.000000 700.000000"
 preserveAspectRatio="xMidYMid meet">
<metadata>
Created by potrace 1.14, written by Peter Selinger 2001-2017
</metadata>
<g transform="translate(0.000000,700.000000) scale(0.100000,-0.100000)"
fill="#000000" stroke="none">
<path d="M3308 6995 c-2 -1 -41 -5 -88 -9 -84 -5 -221 -21 -270 -31 -14 -3
-45 -8 -70 -11 -25 -3 -48 -8 -51 -10 -4 -2 -24 -6 -45 -10 -64 -9 -231 -53
-349 -91 -295 -95 -575 -228 -845 -401 -82 -53 -305 -218 -339 -251 -10 -9
-50 -45 -90 -80 -302 -267 -567 -609 -765 -986 -152 -288 -273 -637 -331 -950
-10 -49 -18 -97 -20 -105 -2 -9 -6 -43 -10 -75 -4 -33 -9 -69 -11 -80 -26
-138 -25 -658 1 -816 2 -13 6 -46 10 -74 9 -76 16 -116 25 -160 5 -22 11 -53
14 -70 59 -321 225 -751 410 -1059 36 -60 66 -111 66 -113 0 -2 4 -9 10 -16 5
-7 46 -64 91 -126 550 -780 1415 -1305 2367 -1436 20 -3 51 -7 67 -10 173 -27
662 -26 845 1 520 77 921 212 1323 443 48 28 90 50 95 49 4 -2 28 12 54 30 26
17 51 32 57 32 6 0 11 6 11 13 0 7 28 33 63 57 374 262 721 637 967 1045 250
415 400 845 476 1365 19 129 28 650 14 755 -5 33 -11 85 -14 115 -4 30 -8 66
-11 80 -2 14 -11 66 -19 115 -51 296 -161 631 -303 919 -226 457 -520 826
-941 1178 -67 56 -232 173 -338 240 -457 289 -959 460 -1534 523 -56 7 -516
15 -522 10z m357 -639 c72 -4 141 -8 155 -10 40 -7 123 -19 147 -22 123 -15
494 -115 538 -143 6 -4 28 -13 50 -20 188 -64 533 -263 726 -418 146 -118 291
-260 423 -413 101 -116 246 -335 339 -510 98 -185 204 -468 242 -650 2 -8 8
-35 14 -60 19 -84 22 -102 45 -265 25 -168 25 -562 1 -686 -3 -13 -7 -44 -10
-69 -2 -25 -9 -70 -15 -100 -6 -30 -13 -68 -16 -84 -3 -16 -7 -32 -9 -36 -2
-4 -7 -22 -10 -41 -22 -128 -116 -389 -207 -578 -69 -144 -197 -357 -263 -440
-7 -9 -49 -61 -93 -116 -155 -193 -356 -382 -572 -535 -362 -257 -838 -444
-1259 -495 -30 -4 -62 -8 -72 -10 -10 -2 -69 -7 -131 -11 -1043 -62 -2009 421
-2584 1291 -191 290 -355 686 -408 989 -3 16 -10 53 -16 81 -6 28 -12 67 -14
86 -2 19 -6 54 -10 79 -14 108 -17 173 -17 319 0 86 2 182 5 214 4 31 8 83 11
115 3 31 7 68 10 82 2 14 6 41 9 60 18 129 78 357 132 510 42 117 182 419 223
478 9 15 52 79 93 142 72 109 191 263 248 321 14 15 53 55 86 90 211 219 469
408 749 549 169 86 191 95 330 145 96 35 330 100 403 111 19 3 44 8 56 10 63
13 235 34 331 40 61 3 111 7 112 8 2 1 67 -1 228 -8z"/>
<path d="M2313 5720 c-58 -35 -84 -115 -57 -178 28 -68 88 -100 162 -87 34 5
44 1 105 -45 l67 -51 0 -59 c1 -33 1 -170 1 -305 0 -135 0 -265 -1 -290 l0
-44 -157 -3 -158 -3 0 -155 0 -155 -337 -2 -338 -1 -32 40 c-18 22 -48 59 -66
81 -21 25 -31 46 -26 56 41 102 -28 204 -137 203 -109 -2 -175 -108 -128 -203
22 -44 74 -79 117 -79 27 0 41 -13 116 -107 49 -62 85 -118 86 -130 l0 -23
373 0 372 0 0 -300 0 -300 -35 -1 c-19 0 -171 -1 -336 -1 l-302 -1 -36 28
c-104 79 -250 9 -241 -115 3 -57 27 -93 75 -116 63 -31 123 -24 170 21 l25 24
340 -2 340 -2 0 -305 0 -305 -372 -3 c-356 -2 -373 -3 -373 -21 0 -10 -7 -24
-15 -31 -8 -7 -43 -50 -76 -95 -60 -81 -63 -83 -111 -89 -107 -14 -165 -122
-114 -212 47 -84 154 -103 225 -40 43 39 65 122 42 164 -7 14 -1 27 25 57 19
22 45 55 57 72 l22 33 345 0 345 0 0 -147 0 -148 175 -5 175 -5 0 -333 c0
-184 -3 -338 -6 -343 -3 -6 -43 -41 -90 -78 -72 -59 -87 -68 -107 -60 -78 30
-175 -46 -175 -138 -1 -82 40 -135 114 -152 87 -19 169 54 169 152 0 37 2 38
118 129 58 46 79 57 103 54 16 -2 30 -1 31 3 0 3 2 175 4 381 1 206 3 378 3
383 1 4 151 6 333 5 l332 -3 1 -372 0 -372 -27 -32 c-32 -36 -44 -101 -28
-144 22 -58 102 -104 160 -92 88 18 138 112 104 197 -9 22 -24 46 -33 53 -16
11 -17 47 -17 389 l0 378 298 0 298 0 2 -377 3 -377 31 -1 c29 -1 62 -21 133
-80 91 -75 91 -76 89 -115 -4 -103 115 -176 206 -128 34 18 65 60 72 96 23
124 -75 213 -197 179 -3 -1 -44 30 -92 68 l-87 70 0 333 0 332 180 0 179 0 0
148 c0 81 0 166 0 190 l1 42 354 0 353 0 60 -73 c50 -61 58 -76 52 -98 -23
-87 52 -179 147 -179 71 0 144 71 144 140 0 78 -64 142 -144 144 -41 1 -45 4
-117 95 -45 57 -73 101 -71 112 3 18 -10 19 -387 19 l-391 0 -1 85 c0 47 0
137 0 200 0 63 0 146 0 184 l1 70 377 0 376 0 18 -23 c25 -32 96 -49 140 -35
92 31 130 132 79 214 -47 76 -147 86 -217 22 -21 -19 -36 -20 -393 -20 -203 0
-373 3 -376 6 -4 4 -8 527 -4 589 0 4 174 9 388 10 386 3 387 3 388 24 1 28 6
35 82 126 61 72 66 77 104 76 147 -2 200 186 75 262 -100 62 -237 -26 -221
-142 6 -42 -5 -61 -82 -144 l-39 -41 -343 0 c-205 0 -345 4 -348 9 -4 6 -6 77
-6 159 l1 149 -159 0 -160 0 0 348 1 347 79 58 c71 52 83 58 112 51 52 -11 86
-7 122 15 112 69 72 244 -58 258 -82 10 -146 -40 -161 -126 -6 -31 -20 -46
-108 -111 -56 -41 -106 -75 -112 -76 -5 0 -16 -2 -22 -2 -10 -2 -13 -85 -13
-382 l0 -380 -334 0 -334 0 -1 327 0 328 24 25 c57 61 49 164 -16 213 -86 63
-208 15 -225 -90 -6 -42 10 -113 26 -113 27 0 32 -52 32 -349 0 -168 -1 -314
-1 -324 -1 -16 -22 -17 -334 -17 l-333 1 0 362 c1 366 0 401 -14 392 -4 -3
-52 29 -106 71 -94 72 -99 78 -106 120 -3 25 -14 56 -23 70 -40 61 -130 82
-192 44z m2343 -126 c-5 -14 -9 -15 -19 -5 -9 9 -9 14 3 21 18 11 24 6 16 -16z
m-2256 1 c0 -8 -7 -15 -15 -15 -8 0 -15 7 -15 15 0 8 7 15 15 15 8 0 15 -7 15
-15z m1113 -168 c-3 -5 -10 -4 -15 1 -6 6 -7 16 -3 22 6 9 9 9 16 -1 4 -7 5
-17 2 -22z m-2153 -847 c0 -14 -15 -19 -29 -10 -17 10 -5 31 14 23 8 -3 15 -9
15 -13z m4342 -42 c-9 -9 -15 -9 -24 0 -10 10 -10 15 2 22 20 12 38 -6 22 -22z
m-1194 -38 l62 0 0 -1000 c0 -946 -1 -1000 -17 -1000 -47 0 -1959 0 -2033 0
l-86 0 0 998 0 997 25 5 c19 4 1498 4 2049 0z m-3020 -1002 c-3 -7 -11 -13
-18 -13 -7 0 -15 6 -17 13 -3 7 4 12 17 12 13 0 20 -5 18 -12z m4130 0 c-6
-18 -28 -21 -28 -4 0 9 7 16 16 16 9 0 14 -5 12 -12z m92 -983 c0 -8 -6 -15
-14 -15 -17 0 -28 14 -19 24 12 12 33 6 33 -9z m-4350 -89 c0 -17 -27 -29 -35
-16 -4 6 -3 15 0 20 9 15 35 12 35 -4z m2190 -961 c0 -8 -7 -15 -15 -15 -16 0
-20 12 -8 23 11 12 23 8 23 -8z m1069 -78 c-10 -18 -12 -19 -21 -4 -11 21 -2
38 17 31 12 -5 12 -10 4 -27z m-2219 -6 c0 -22 -16 -36 -24 -22 -8 12 3 41 15
41 5 0 9 -9 9 -19z"/>
<path d="M2483 4463 c-4 -2 -8 -436 -7 -966 l1 -962 1026 -2 1027 -3 0 968 0
968 -1019 0 c-561 -1 -1023 -2 -1028 -3z m287 -85 c0 -5 -6 -11 -14 -14 -8 -3
-26 -32 -40 -64 -20 -43 -33 -59 -52 -64 -38 -10 -94 -49 -94 -66 0 -10 -3
-11 -8 -3 -8 13 -7 196 1 210 7 11 207 13 207 1z m535 -18 c-27 -15 -83 -50
-124 -79 -117 -84 -165 -97 -223 -64 -16 10 -43 40 -60 68 -17 27 -43 61 -59
75 l-28 26 272 0 272 0 -50 -26z m247 6 c-15 -11 -33 -28 -39 -37 -12 -16 -16
-14 -48 18 -19 19 -35 36 -35 37 0 1 33 3 74 3 l75 0 -27 -21z m632 12 c-3 -4
-11 -8 -17 -8 -7 0 -30 -28 -52 -63 -48 -74 -70 -94 -112 -103 -47 -9 -88 9
-208 91 -60 41 -115 75 -122 75 -8 0 -12 4 -9 8 2 4 122 8 265 8 143 0 258 -3
255 -8z m265 -378 c0 -216 -4 -373 -9 -358 -9 31 -31 64 -112 166 -113 143
-104 184 66 284 84 50 53 111 -75 151 -9 3 -28 31 -42 61 -15 31 -33 59 -42
62 -37 14 -7 20 100 20 l115 0 -1 -386z m-1038 340 c14 0 59 -50 59 -66 0 -8
-22 1 -57 22 -31 19 -62 34 -67 35 -6 0 -2 4 9 9 11 5 26 7 33 4 8 -2 18 -4
23 -4z m247 -5 c-2 -1 -34 -19 -71 -39 l-68 -38 16 32 c18 35 64 59 101 52 14
-2 24 -5 22 -7z m-831 -17 c11 -13 28 -37 36 -54 18 -34 81 -94 100 -94 7 0
13 -17 13 -43 1 -23 18 -79 37 -124 l35 -82 -52 21 c-72 29 -104 38 -156 45
-28 3 -50 13 -58 25 -24 33 -55 58 -114 91 -32 17 -60 37 -62 43 -6 15 25 37
75 53 29 9 40 21 60 63 24 51 44 78 58 78 4 0 17 -10 28 -22z m1395 5 c9 -10
21 -35 29 -55 7 -21 19 -38 27 -38 7 0 11 -4 8 -9 -3 -5 6 -12 22 -16 46 -11
92 -37 92 -51 0 -7 -12 -21 -27 -30 -84 -51 -131 -87 -143 -109 -10 -19 -21
-25 -46 -25 -37 0 -176 -44 -211 -66 -13 -8 -23 -12 -23 -9 0 2 16 42 35 88
19 46 35 100 37 120 2 30 9 42 39 62 20 13 57 54 80 90 24 36 48 65 55 65 6 0
18 -8 26 -17z m-852 -48 c16 -8 46 -26 66 -40 42 -28 92 -27 134 3 73 54 132
66 150 31 12 -21 14 -31 24 -104 4 -22 9 -52 12 -67 5 -27 5 -27 -26 -16 -40
14 -149 4 -194 -17 -31 -15 -37 -15 -97 5 -63 22 -151 24 -192 6 -15 -7 -16
-5 -8 16 5 13 12 53 16 88 11 105 44 132 115 95z m-143 -29 c-3 -8 -9 -41 -13
-73 -3 -32 -10 -66 -15 -75 -15 -28 -50 -21 -101 20 -47 37 -58 52 -37 52 18
0 81 32 123 62 44 32 50 34 43 14z m669 -64 c23 -12 45 -18 48 -14 4 3 4 -1 0
-11 -3 -9 -9 -17 -13 -17 -3 0 -21 -13 -40 -29 -64 -54 -94 -43 -105 39 -3 25
-9 60 -12 79 l-7 34 44 -30 c24 -17 63 -40 85 -51z m-1233 -123 c32 -19 68
-49 79 -67 19 -30 19 -38 8 -72 -7 -21 -44 -78 -82 -127 -38 -48 -76 -101 -84
-116 -8 -15 -18 -26 -22 -23 -5 3 -8 415 -3 470 1 5 11 1 24 -10 12 -11 48
-36 80 -55z m406 31 c24 -21 57 -42 73 -45 34 -8 44 -21 28 -39 -10 -13 -17
-61 -19 -123 -1 -22 -2 -22 -21 -6 -25 22 -64 96 -96 181 -13 34 -24 65 -24
67 0 12 18 1 59 -35z m903 -14 c-75 -166 -102 -216 -120 -216 -4 0 -7 26 -8
58 -1 33 -8 71 -18 91 -13 24 -14 32 -4 28 17 -6 74 24 118 61 27 24 36 27 38
15 2 -9 0 -25 -6 -37z m-535 -46 l37 -16 -33 -13 c-65 -28 -77 -101 -27 -180
29 -45 28 -48 -13 -27 -56 29 -92 6 -99 -63 -4 -50 -6 -52 -32 -47 -15 2 -41
-3 -59 -11 -35 -18 -40 -46 -16 -93 l15 -29 -56 30 c-31 16 -67 29 -81 29 -38
0 -89 -28 -101 -55 -16 -36 -28 -31 -45 18 -27 80 -11 157 39 188 30 18 50 22
119 21 104 0 109 4 108 102 -1 87 17 133 61 152 41 18 136 15 183 -6z m310 3
c43 -23 61 -70 58 -149 -4 -91 3 -98 113 -100 94 -3 143 -18 161 -52 24 -46
16 -167 -14 -192 -11 -9 -17 -5 -29 17 -30 59 -96 68 -179 24 l-56 -29 16 33
c30 64 -5 106 -84 99 -18 -1 -33 1 -34 4 0 4 -1 24 -3 45 -6 73 -56 93 -124
50 -26 -17 -27 -17 -12 2 25 33 47 78 54 110 8 38 -10 73 -53 102 l-33 23 23
8 c45 17 54 19 108 21 37 1 65 -4 88 -16z m-176 -91 c7 -38 2 -59 -25 -103
-17 -29 -36 -54 -42 -56 -16 -5 -75 83 -81 121 -5 31 -2 36 33 58 38 24 38 24
76 6 21 -10 39 -22 39 -26z m-645 -17 c94 -32 170 -70 177 -89 5 -12 -5 -15
-47 -15 -29 0 -69 -6 -89 -14 -35 -15 -35 -15 -40 12 -3 15 -27 51 -52 79 -26
29 -42 52 -35 52 6 0 45 -11 86 -25z m1209 -27 c-25 -28 -49 -64 -52 -79 -5
-27 -5 -27 -40 -12 -19 8 -62 15 -94 15 -32 0 -59 4 -59 8 0 23 217 115 278
119 8 1 -7 -22 -33 -51z m-1282 -34 c20 -25 37 -52 37 -60 0 -19 -31 -30 -105
-38 -33 -4 -69 -10 -80 -13 -18 -5 -18 -4 -5 14 56 76 90 129 90 140 0 20 23
4 63 -43z m1371 32 c3 -13 26 -51 52 -86 l45 -62 -28 6 c-15 3 -57 10 -92 16
-74 11 -88 21 -75 49 11 23 76 100 85 100 4 1 10 -10 13 -23z m-837 -138 c15
-7 39 -20 52 -30 34 -26 74 -22 142 14 71 36 83 30 75 -39 -4 -34 -2 -43 9
-43 8 0 15 -4 15 -10 0 -5 19 -8 43 -6 77 6 82 -6 37 -74 -38 -57 -38 -85 1
-143 41 -63 34 -80 -31 -75 -41 2 -51 0 -60 -17 -6 -11 -10 -29 -9 -40 7 -74
-6 -79 -88 -34 -61 34 -80 33 -144 -6 -68 -44 -84 -35 -79 43 1 17 -3 32 -9
32 -6 0 -11 6 -11 13 0 10 -13 13 -50 9 -66 -5 -73 12 -31 76 39 61 39 79 1
139 -46 72 -43 77 42 75 40 -1 52 14 49 60 -2 27 6 68 14 68 2 0 17 -5 32 -12z
m-502 -40 c-14 -42 -7 -136 14 -178 19 -40 19 -41 0 -84 -22 -50 -30 -127 -18
-170 5 -16 7 -31 6 -33 -2 -1 -19 2 -38 7 -38 10 -102 19 -136 20 -13 0 -32 9
-43 20 -24 24 -18 43 36 124 43 66 42 90 -9 163 -70 99 -53 124 93 139 36 3
67 8 69 10 2 2 11 4 19 4 10 0 12 -6 7 -22z m1339 7 c140 -16 155 -40 86 -141
-23 -34 -40 -71 -40 -87 0 -16 17 -53 40 -87 65 -96 50 -126 -70 -136 -30 -3
-70 -9 -88 -14 -33 -9 -34 -8 -26 18 13 47 7 128 -15 177 -19 43 -19 50 -6 74
29 53 37 122 21 186 -6 25 -5 26 21 21 15 -3 50 -8 77 -11z m-1557 -169 c25
-41 23 -43 -17 -19 -38 22 -54 55 -45 90 l7 28 16 -32 c10 -18 27 -48 39 -67z
m1738 44 c-5 -28 -40 -66 -66 -73 -10 -3 -19 -4 -19 -2 0 2 16 27 35 56 19 30
35 58 35 64 0 5 5 3 10 -6 5 -9 7 -26 5 -39z m-1835 -35 c0 -7 14 -25 31 -39
l31 -26 -31 -29 c-17 -16 -31 -34 -31 -40 0 -6 -3 -11 -7 -11 -5 0 -8 38 -8
84 0 46 3 82 8 79 4 -2 7 -10 7 -18z m1880 -72 c0 -84 -1 -87 -15 -60 -8 16
-25 37 -37 47 l-23 18 27 21 c15 12 30 30 33 41 12 36 15 21 15 -67z m-1304
46 c29 -16 56 -34 58 -38 7 -11 -99 -71 -133 -75 -25 -3 -37 3 -56 26 -31 37
-31 58 0 92 32 34 65 33 131 -5z m853 2 c28 -39 26 -57 -8 -91 -25 -25 -32
-28 -64 -20 -20 4 -56 20 -81 36 -52 33 -49 41 23 79 65 34 104 32 130 -4z
m-1333 -105 c-14 -19 -31 -47 -37 -62 -8 -23 -12 -25 -19 -14 -18 28 -10 58
21 84 46 39 68 34 35 -8z m362 -47 c9 -1 24 -2 32 -3 24 -2 89 22 122 45 l30
22 -16 -31 c-20 -39 -20 -76 -1 -92 9 -7 38 -15 66 -18 44 -4 50 -7 48 -26 -6
-89 37 -119 114 -80 l31 17 -17 -24 c-56 -77 -62 -145 -16 -183 17 -14 35 -26
40 -26 5 0 9 -4 9 -9 0 -15 -72 -34 -127 -34 -108 1 -143 40 -143 160 0 99 -7
105 -116 107 -102 1 -137 16 -159 69 -16 39 -11 116 10 158 l16 30 30 -40 c16
-23 37 -42 47 -42z m1048 49 c24 -46 22 -152 -2 -180 -32 -34 -56 -42 -148
-44 -110 -2 -116 -8 -116 -111 0 -87 -16 -125 -61 -143 -39 -17 -123 -17 -172
-1 -36 12 -50 31 -24 31 7 0 26 13 41 29 38 40 37 86 -3 151 l-31 51 29 -16
c17 -8 44 -15 60 -15 36 0 52 24 53 81 0 37 2 39 32 40 45 1 65 6 81 19 20 16
19 60 -1 88 -19 28 -15 28 46 -4 80 -42 142 -33 177 26 9 17 18 30 20 30 1 0
10 -15 19 -32z m303 3 c22 -21 30 -36 27 -53 -3 -12 -5 -26 -5 -30 -1 -5 -5
-8 -11 -8 -5 0 -9 3 -8 8 3 6 -18 44 -55 100 -16 24 21 12 52 -17z m71 -451
l0 -379 -122 0 c-114 0 -121 1 -96 15 27 14 68 79 68 108 0 8 20 21 47 30 53
18 93 51 93 77 0 35 -14 50 -79 88 -85 50 -106 73 -106 119 1 39 42 110 110
187 20 22 46 61 58 87 12 26 23 47 25 48 1 0 2 -171 2 -380z m-1847 302 c21
-31 60 -85 87 -120 27 -34 55 -80 61 -101 10 -35 9 -42 -10 -70 -12 -17 -54
-49 -92 -72 -39 -22 -74 -50 -79 -62 -5 -12 -9 -20 -10 -17 -4 14 -4 500 0
499 3 0 22 -26 43 -57z m1711 -54 c-4 -7 -20 -29 -36 -48 -15 -19 -36 -52 -46
-74 l-19 -39 -35 34 c-35 33 -58 68 -58 87 0 17 33 26 129 36 30 4 57 8 59 11
10 10 13 5 6 -7z m-1461 -19 c20 -5 37 -14 37 -20 0 -19 -23 -54 -58 -88 l-35
-34 -18 37 c-10 21 -35 58 -55 83 l-37 45 64 -7 c35 -3 81 -11 102 -16z m716
-93 c24 -47 16 -73 -28 -97 -33 -18 -61 -14 -98 14 -24 18 -14 70 24 126 l37
53 23 -28 c13 -16 32 -46 42 -68z m-578 54 c15 -4 49 -7 77 -6 37 1 48 -2 45
-12 -7 -18 -86 -56 -177 -87 -109 -37 -117 -34 -63 24 26 27 49 61 53 76 5 19
11 24 23 20 9 -4 28 -11 42 -15z m1094 -9 c3 -15 27 -49 52 -75 29 -28 41 -46
31 -46 -25 0 -165 48 -217 75 -74 37 -71 50 9 51 37 1 76 6 86 12 28 17 32 15
39 -17z m-924 -99 c1 -35 8 -70 15 -80 19 -25 17 -29 -15 -35 -16 -4 -54 -27
-85 -52 l-56 -46 5 32 c11 64 116 261 130 247 2 -2 5 -32 6 -66z m722 41 c22
-25 94 -181 102 -221 l7 -34 -57 47 c-31 25 -70 48 -85 51 -28 6 -28 7 -14 40
8 18 14 56 14 84 0 53 7 61 33 33z m-867 -131 c-20 -50 -36 -104 -36 -121 0
-23 -6 -34 -22 -40 -29 -11 -61 -46 -102 -108 -42 -64 -64 -63 -94 1 -30 62
-36 68 -94 89 -25 10 -52 24 -58 32 -12 15 -8 19 95 84 33 20 66 50 74 64 8
15 19 26 25 25 27 -4 117 17 176 41 36 15 67 26 69 25 2 -2 -13 -43 -33 -92z
m1167 28 c20 0 37 -4 37 -8 0 -19 60 -73 115 -104 33 -19 61 -41 63 -50 3 -16
-47 -48 -74 -48 -19 0 -52 -38 -77 -90 -31 -64 -48 -62 -97 10 -23 34 -59 73
-80 88 -28 19 -39 35 -40 52 0 36 -24 109 -54 168 l-25 50 97 -34 c53 -19 114
-34 135 -34z m-633 -81 c55 -21 154 -29 197 -15 20 6 21 5 13 -31 -5 -21 -11
-56 -14 -78 -14 -112 -42 -122 -151 -58 -74 44 -105 44 -181 -1 -114 -67 -131
-56 -157 97 l-13 78 30 -7 c66 -15 181 0 211 27 11 11 0 13 65 -12z m-350 -24
c7 -8 15 -34 17 -58 2 -23 8 -57 13 -74 5 -18 5 -33 2 -33 -4 0 -34 18 -67 40
-33 22 -64 40 -70 40 -5 0 -16 4 -24 9 -12 8 -8 15 19 38 63 54 89 63 110 38z
m686 -11 c69 -47 70 -55 5 -89 -31 -17 -70 -40 -88 -53 l-31 -22 8 38 c5 20
10 56 13 79 5 45 21 73 42 73 7 0 30 -12 51 -26z m-1238 -124 c34 -14 62 -31
62 -38 0 -17 29 -72 46 -89 7 -7 23 -17 36 -22 16 -7 -16 -10 -104 -10 -96 -1
-128 2 -129 12 -1 16 -1 211 0 217 1 3 7 -6 14 -20 8 -17 34 -33 75 -50z m442
7 c20 -9 72 -41 115 -73 44 -31 98 -65 120 -75 40 -19 39 -19 -235 -19 -246 0
-272 2 -253 15 12 8 35 36 51 62 68 111 111 129 202 90z m964 -3 c13 -11 41
-45 62 -77 20 -32 49 -64 63 -72 23 -12 -9 -14 -252 -14 l-278 0 55 28 c30 16
79 48 109 70 113 85 186 105 241 65z m-574 -43 c0 -5 -11 -23 -25 -39 -27 -32
-67 -45 -99 -32 -13 6 -15 9 -6 9 8 1 40 16 70 35 65 40 60 38 60 27z m147
-48 c36 -15 37 -16 15 -24 -29 -11 -64 3 -91 37 -30 38 -26 49 8 24 17 -11 47
-28 68 -37z m-52 -61 c15 -8 -4 -11 -75 -11 -88 0 -93 1 -64 14 17 7 40 24 50
38 l19 25 25 -28 c14 -15 34 -33 45 -38z"/>
<path d="M3427 3630 c-64 -19 -76 -59 -24 -81 17 -8 64 -14 103 -13 158 1 169
91 12 99 -35 2 -76 -1 -91 -5z"/>
<path d="M3620 3552 c0 -32 -151 -44 -215 -18 -21 9 -39 15 -40 14 -2 -2 1
-13 6 -25 23 -62 240 -59 255 3 4 14 4 28 0 31 -3 4 -6 1 -6 -5z"/>
<path d="M3370 3476 c0 -17 9 -27 33 -37 41 -18 171 -19 189 -1 14 14 28 16
28 3 0 -31 -167 -43 -219 -16 -30 15 -31 15 -31 -4 0 -48 141 -72 223 -38 35
15 36 17 35 66 l0 51 -31 -17 c-45 -24 -164 -24 -200 0 -27 17 -27 17 -27 -7z"/>
</g>
</svg>
